<svg id="Layer_1" data-name="Layer 1" xmlns="http://www.w3.org/2000/svg" viewBox="0 0 329.56 294.86"><defs><style>.cls-1{fill:#607d8b;}.cls-2{fill:#90a4ae;}.cls-3{fill:#cfd8dc;}</style></defs><title>web logo2</title><path class="cls-1" d="M235.18,330.09a35,35,0,0,1,59-37.52c.58.81,1.11,1.65,1.61,2.51a35,35,0,1,1-60.62,35Z" transform="translate(-35.49 -52.73)"/><path class="cls-2" d="M268.24,277.69a42.53,42.53,0,0,0-21.5-59s0,0,0,0a49.79,49.79,0,0,0,.18-35.89v0c4.8,1.32,33.44,9.65,48.32,38.74,16,31.25,3.49,61.83-1.05,71A34.94,34.94,0,0,0,268.24,277.69Z" transform="translate(-35.49 -52.73)"/><path class="cls-1" d="M330,235.52a35,35,0,0,1-3-69.87c1-.09,2-.13,3-.14a35,35,0,0,1,0,70Z" transform="translate(-35.49 -52.73)"/><path class="cls-2" d="M301.19,180.69a42.52,42.52,0,0,0-61.81-10.86s0,0,0,0a49.83,49.83,0,0,0-31-18.1l0,0c3.54-3.49,25.08-24.13,57.71-22.47,35.06,1.77,55.29,27.89,61,36.42A35,35,0,0,0,301.19,180.69Z" transform="translate(-35.49 -52.73)"/><path class="cls-1" d="M295.35,105.23a35,35,0,0,1-62-32.35c.41-.9.87-1.78,1.37-2.65a35,35,0,0,1,60.63,35Z" transform="translate(-35.49 -52.73)"/><path class="cls-2" d="M233.44,102.8a42.51,42.51,0,0,0-40.31,48.1s0,0,0,0a49.86,49.86,0,0,0-31.18,17.79h0c-1.26-4.81-8.36-33.78,9.39-61.21,19.07-29.48,51.8-33.94,62-34.61A34.94,34.94,0,0,0,233.44,102.8Z" transform="translate(-35.49 -52.73)"/><path class="cls-1" d="M166,70.36a35,35,0,0,1-59,37.52,28.21,28.21,0,0,1-1.61-2.51,35,35,0,1,1,60.62-35Z" transform="translate(-35.49 -52.73)"/><path class="cls-2" d="M133,122.76a42.52,42.52,0,0,0,21.5,59s0,0,0,0a49.82,49.82,0,0,0-.18,35.9v0c-4.79-1.31-33.43-9.65-48.31-38.74-16-31.25-3.49-61.83,1-71A34.91,34.91,0,0,0,133,122.76Z" transform="translate(-35.49 -52.73)"/><path class="cls-1" d="M70.49,165.58a35,35,0,0,1,3,69.87c-1,.09-2,.14-3,.14a35,35,0,0,1,0-70Z" transform="translate(-35.49 -52.73)"/><path class="cls-2" d="M99.34,220.41a42.52,42.52,0,0,0,61.81,10.86h0a49.89,49.89,0,0,0,31,18.11h0c-3.54,3.5-25.08,24.13-57.71,22.47-35.06-1.77-55.29-27.89-61-36.42A35,35,0,0,0,99.34,220.41Z" transform="translate(-35.49 -52.73)"/><path class="cls-1" d="M105,295a35,35,0,0,1,62,32.35c-.41.9-.87,1.78-1.37,2.65A35,35,0,0,1,105,295Z" transform="translate(-35.49 -52.73)"/><path class="cls-2" d="M166.86,297.45a42.51,42.51,0,0,0,40.31-48.1s0,0,0,0a49.86,49.86,0,0,0,31.18-17.79h0c1.26,4.81,8.36,33.78-9.39,61.21-19.07,29.48-51.8,33.94-62,34.61A34.94,34.94,0,0,0,166.86,297.45Z" transform="translate(-35.49 -52.73)"/><polygon class="cls-3" points="215.18 176.65 164.85 205.71 114.52 176.65 114.52 118.54 164.85 89.48 215.18 118.54 215.18 176.65"/></svg>